<svg xmlns="http://www.w3.org/2000/svg" viewBox="0 0 100 125" xml:space="preserve">
  <path stroke="#d00" fill="#d00" d="M50.6 48.8h-1c-1.7-.1-3.7-.7-3.7-3.1 0-2.1 1.6-3.9 3.7-4.1h.9c2.2.2 3.7 1.6 3.7 3.6 0 .7.6 1.3 1.3 1.3.7 0 1.3-.6 1.3-1.3 0-3.1-2.2-5.5-5.4-6v-2c0-.7-.6-1.3-1.3-1.3s-1.3.6-1.3 1.3v2c-3.1.6-5.4 3.3-5.4 6.5 0 3.3 2.3 5.4 6.1 5.6h1c1.7.1 3.7.7 3.7 3.1 0 2.1-1.6 3.9-3.7 4.1h-.9c-2.2-.2-3.7-1.6-3.7-3.6 0-.7-.6-1.3-1.3-1.3s-1.3.6-1.3 1.3c0 3.1 2.2 5.5 5.4 6v2c0 .7.6 1.3 1.3 1.3s1.3-.6 1.3-1.3v-2c3.1-.6 5.4-3.3 5.4-6.5-.1-3.3-2.4-5.4-6.1-5.6z"/>
  <path stroke="#d00" fill="#d00" d="M50 72c-12.1 0-22-9.9-22-22s9.9-22 22-22 22 9.9 22 22-9.9 22-22 22zm0-41c-10.5 0-19 8.5-19 19s8.5 19 19 19 19-8.5 19-19-8.5-19-19-19z"/>
</svg>
