<svg xmlns="http://www.w3.org/2000/svg" viewBox="-5 -10 110 135">
  <path stroke="#d00" fill="#d00" d="M81.668 43.441a8.28 8.28 0 0 0-5.887-3.652 8.278 8.278 0 0 0-6.601 2.09l-3.73 3.386-.005-25.215c0-3.844-3.129-6.973-6.969-6.973a6.947 6.947 0 0 0-4.69 1.82 6.928 6.928 0 0 0-1.892-3.472 6.886 6.886 0 0 0-4.937-2.05c-3.844 0-6.969 3.132-6.969 6.98V31.8a6.953 6.953 0 0 0-4.543-1.695c-3.351 0-6.156 2.375-6.82 5.53a6.948 6.948 0 0 0-4.695-1.831c-3.844 0-6.973 3.129-6.973 6.972v24.805a6.1 6.1 0 0 0 2.414 4.855 3.646 3.646 0 0 1 1.453 2.93v6.691c0 5.82 4.738 10.56 10.56 10.56H51.02c5.824 0 10.56-4.739 10.56-10.56v-6.691c0-1.172.5-2.234 1.335-2.84a.97.97 0 0 0 .117-.098l17.395-16.37a8.273 8.273 0 0 0 1.242-10.626zm-50.77-6.36c0-2.503 2.04-4.542 4.543-4.542s4.543 2.039 4.543 4.543V50.69c0 2.504-2.04 4.543-4.543 4.543s-4.543-2.04-4.543-4.543zm-6.973-.843a4.55 4.55 0 0 1 4.543 4.543V54.39a4.55 4.55 0 0 1-4.543 4.543 4.549 4.549 0 0 1-4.543-4.516V40.781a4.55 4.55 0 0 1 4.543-4.543zM51.02 88.195H31.382c-4.066 0-7.437-3.008-8.027-6.914h35.691c-.59 3.906-3.96 6.914-8.027 6.914zm27.742-35.902-17.344 16.32c-1.422 1.07-2.27 2.84-2.27 4.758v5.476l-35.894.004v-5.476c0-1.926-.88-3.7-2.422-4.872a3.67 3.67 0 0 1-1.45-2.918v-5.914a6.95 6.95 0 0 0 4.544 1.692c3.351 0 6.156-2.375 6.82-5.531a6.948 6.948 0 0 0 4.695 1.832c3.844 0 6.973-3.13 6.973-6.973V36.793h4.531a1.214 1.214 0 1 0 0-2.43h-4.531v-8.508h4.531a1.214 1.214 0 1 0 0-2.43h-4.531v-7.07a4.55 4.55 0 0 1 4.54-4.55c1.222 0 2.362.472 3.214 1.336.86.859 1.336 2 1.336 3.214v3.657c0 .015-.004.027-.004.039v20.004a1.214 1.214 0 1 0 2.43 0v-.836h4.53a1.214 1.214 0 1 0 0-2.43h-4.53v-8.508h4.53a1.214 1.214 0 1 0 0-2.43h-4.53v-5.753c0-.016.003-.027.003-.04 0-2.503 2.036-4.538 4.54-4.538s4.539 2.035 4.539 4.539v27.395a6.196 6.196 0 0 1-4.957 1.281 8.67 8.67 0 0 0-8.696 3.734l-1.844 2.762a1.214 1.214 0 1 0 2.02 1.348l1.844-2.762a6.242 6.242 0 0 1 6.258-2.687 8.609 8.609 0 0 0 7.312-2.125l.106-.094c.011-.012.027-.024.039-.035l5.71-5.188a5.854 5.854 0 0 1 4.669-1.476 5.845 5.845 0 0 1 4.16 2.582 5.846 5.846 0 0 1-.88 7.511z"/>
</svg>
